HIERARCHY
ROOT Hips
{
	OFFSET 0.000000 0.000000 0.000000
	CHANNELS 6 Xposition Yposition Zposition Xrotation Yrotation Zrotation
	JOINT LeftUpLeg_virtual
	{
		OFFSET 0.000000 0.000000 0.000000
		CHANNELS 3 Xrotation Yrotation Zrotation
		JOINT LeftUpLeg
		{
			OFFSET 10.205400 -3.823500 0.155100
			CHANNELS 3 Xrotation Yrotation Zrotation
			JOINT LeftLeg
			{
				OFFSET 0.708757 -12.982077 0.567790
				CHANNELS 3 Xrotation Yrotation Zrotation
				JOINT LeftFoot
				{
					OFFSET -0.708756 -10.717838 -2.184338
					CHANNELS 3 Xrotation Yrotation Zrotation
					JOINT LeftToeBase
					{
						OFFSET 0.108149 -7.191104 7.560241
						CHANNELS 3 Xrotation Yrotation Zrotation
						JOINT LeftToe_End
						{
							OFFSET 0.070230 0.081724 4.490308
							CHANNELS 3 Xrotation Yrotation Zrotation
							End Site
							{
								OFFSET 0 0 0
							}
						}
					}
				}
			}
		}
	}
	JOINT RightUpLeg_virtual
	{
		OFFSET 0.000000 0.000000 0.000000
		CHANNELS 3 Xrotation Yrotation Zrotation
		JOINT RightUpLeg
		{
			OFFSET -10.205400 -3.823500 0.005500
			CHANNELS 3 Xrotation Yrotation Zrotation
			JOINT RightLeg
			{
				OFFSET -0.708756 -12.982134 0.610632
				CHANNELS 3 Xrotation Yrotation Zrotation
				JOINT RightFoot
				{
					OFFSET 0.708754 -10.717769 -1.945823
					CHANNELS 3 Xrotation Yrotation Zrotation
					JOINT RightToeBase
					{
						OFFSET -0.108140 -7.191069 7.372968
						CHANNELS 3 Xrotation Yrotation Zrotation
						JOINT RightToe_End
						{
							OFFSET -0.070227 0.081735 4.479403
							CHANNELS 3 Xrotation Yrotation Zrotation
							End Site
							{
								OFFSET 0 0 0
							}
						}
					}
				}
			}
		}
	}
	JOINT Spine_virtual
	{
		OFFSET 0.000000 0.000000 0.000000
		CHANNELS 3 Xrotation Yrotation Zrotation
		JOINT Spine
		{
			OFFSET 0.000000 6.876099 0.125700
			CHANNELS 3 Xrotation Yrotation Zrotation
			JOINT Spine1
			{
				OFFSET 0.000000 5.730043 0.104720
				CHANNELS 3 Xrotation Yrotation Zrotation
				JOINT Spine1_split
				{
					OFFSET 0.000000 5.730043 0.104720
					CHANNELS 3 Xrotation Yrotation Zrotation
					JOINT Spine2
					{
						OFFSET 0.000000 5.730043 0.104720
						CHANNELS 3 Xrotation Yrotation Zrotation
						JOINT Neck_virtual
						{
							OFFSET 0.000000 0.000000 0.000000
							CHANNELS 3 Xrotation Yrotation Zrotation
							JOINT Neck
							{
								OFFSET 0.000000 10.314075 0.188496
								CHANNELS 3 Xrotation Yrotation Zrotation
								JOINT Head
								{
									OFFSET 0.000000 7.643700 -2.377400
									CHANNELS 3 Xrotation Yrotation Zrotation
									JOINT HeadTop_End
									{
										OFFSET 0.000000 43.788605 -13.619600
										CHANNELS 3 Xrotation Yrotation Zrotation
										End Site
										{
											OFFSET 0 0 0
										}
									}
								}
							}
						}
						JOINT LeftShoulder_virtual
						{
							OFFSET 0.000000 0.000000 0.000000
							CHANNELS 3 Xrotation Yrotation Zrotation
							JOINT LeftShoulder
							{
								OFFSET 2.196100 4.412489 0.087492
								CHANNELS 3 Xrotation Yrotation Zrotation
								JOINT LeftShoulder_split
								{
									OFFSET 2.196100 4.412489 0.087492
									CHANNELS 3 Xrotation Yrotation Zrotation
									JOINT LeftArm
									{
										OFFSET 8.771219 -2.981674 -0.026999
										CHANNELS 3 Xrotation Yrotation Zrotation
										JOINT LeftForeArm
										{
											OFFSET 8.512804 0.000000 -0.000000
											CHANNELS 3 Xrotation Yrotation Zrotation
											JOINT LeftHand
											{
												OFFSET 18.484802 0.000000 -0.000000
												CHANNELS 3 Xrotation Yrotation Zrotation
												End Site
												{
													OFFSET 0 0 0
												}
											}
										}
									}
								}
							}
						}
						JOINT RightShoulder_virtual
						{
							OFFSET 0.000000 0.000000 0.000000
							CHANNELS 3 Xrotation Yrotation Zrotation
							JOINT RightShoulder
							{
								OFFSET -2.196100 4.412496 0.070690
								CHANNELS 3 Xrotation Yrotation Zrotation
								JOINT RightShoulder_split
								{
									OFFSET -2.196100 4.412496 0.070690
									CHANNELS 3 Xrotation Yrotation Zrotation
									JOINT RightArm
									{
										OFFSET -8.771282 -2.981682 -0.094208
										CHANNELS 3 Xrotation Yrotation Zrotation
										JOINT RightForeArm
										{
											OFFSET -8.494598 0.000000 0.000000
											CHANNELS 3 Xrotation Yrotation Zrotation
											JOINT RightHand
											{
												OFFSET -18.483803 0.000000 0.000001
												CHANNELS 3 Xrotation Yrotation Zrotation
												End Site
												{
													OFFSET 0 0 0
												}
											}
										}
									}
								}
							}
						}
					}
				}
			}
		}
	}
}
MOTION
Frames: 7
Frame Time: 0.03333333
-0.098642 28.528776 -1.484951 0.000000 0.000000 0.000000 -14.365358 2.126106 0.543108 -18.777209 -4.332103 19.503656 64.472492 -3.189124 0.259794 -30.684782 1.907827 -16.032981 -1.752181 -0.564161 0.753968 0.000000 0.000000 0.000000 -14.921762 1.898136 0.647856 -8.615206 -4.980580 -20.811400 59.674359 4.828959 2.706535 -37.944737 -7.954787 13.122657 0.601402 0.254396 -0.463713 0.000000 0.000000 0.000000 -14.545677 0.662948 0.160396 18.422917 0.620835 2.232177 4.395250 -0.109647 0.196219 2.177894 3.516813 -0.189118 0.000000 0.000000 0.000000 5.430040 -0.214238 0.625657 -12.426866 -1.670261 1.033772 -17.516276 -1.734186 -0.088408 0.000000 0.000000 0.000000 5.772666 -0.091153 0.940930 4.288920 -9.497113 -3.878447 -4.293757 -0.367096 -4.104690 -8.526555 -15.468116 -56.626295 67.652703 -60.287416 68.698842 0.000000 0.000000 0.000000 5.674553 -0.240555 0.089538 11.066758 -7.141250 17.502744 2.263314 1.278641 1.076181 -23.768578 17.746756 58.720502 88.006612 60.158776 -81.674357 0.000000 0.000000 0.000000 
-0.144953 28.560116 -1.425694 0.000000 0.000000 0.000000 -14.439122 2.247026 0.475255 -18.750479 -4.557531 19.558906 64.399286 -3.221392 0.212814 -30.737832 1.860303 -16.052319 -1.669429 -0.546622 0.792394 0.000000 0.000000 0.000000 -15.069009 2.198363 0.598314 -8.304841 -4.931111 -20.728477 59.905069 4.883940 2.682765 -38.106735 -7.936863 12.983619 0.862233 0.284321 -0.485092 0.000000 0.000000 0.000000 -14.653235 0.957167 0.119487 18.283645 0.528132 2.143985 4.469763 -0.156288 0.235228 2.061042 3.854780 0.071595 0.000000 0.000000 0.000000 5.476866 -0.275902 0.672958 -12.582267 -1.586582 0.839156 -17.869143 -1.336602 -0.331686 0.000000 0.000000 0.000000 5.803714 -0.111056 0.987691 4.382306 -9.504647 -3.615607 -3.813151 -0.601229 -4.560098 -10.460036 -15.833050 -58.548921 64.638171 -59.349932 65.803224 0.000000 0.000000 0.000000 5.805616 -0.255292 0.136396 10.809668 -7.133388 17.726503 2.362064 0.535882 2.487605 -23.473856 16.499726 59.331046 86.308832 61.310811 -80.489927 0.000000 0.000000 0.000000 
-0.194801 28.621998 -1.387208 0.000000 0.000000 0.000000 -14.699682 2.388854 0.445016 -18.614103 -4.738760 19.411690 64.347349 -3.218393 0.189349 -30.887256 1.909311 -16.129946 -1.564884 -0.485111 0.770694 0.000000 0.000000 0.000000 -15.346646 2.446671 0.532716 -7.688514 -5.021029 -20.678710 59.941412 5.042637 2.580237 -38.165550 -8.076929 13.113214 0.770477 0.289104 -0.511199 0.000000 0.000000 0.000000 -14.944929 1.364599 0.085595 18.374406 0.355077 1.885024 4.664841 -0.100119 0.281094 1.609466 3.443875 0.301244 0.000000 0.000000 0.000000 5.638890 -0.211260 0.620641 -12.121653 -1.455431 0.483474 -18.553061 -1.067429 -0.572178 0.000000 0.000000 0.000000 5.906465 -0.032438 0.992795 4.091599 -10.134618 -3.437375 -3.606680 -1.415300 -3.988073 -10.947458 -15.472052 -58.846676 58.175214 -59.717273 59.691967 0.000000 0.000000 0.000000 6.117831 -0.135249 0.214147 10.369597 -6.848755 17.867946 0.980896 -0.172936 2.574796 -21.346288 17.283326 58.312153 82.865378 64.937996 -78.301091 0.000000 0.000000 0.000000 
-0.235038 28.706625 -1.373752 0.000000 0.000000 0.000000 -15.109548 2.533923 0.456024 -18.339292 -4.788395 19.032045 64.316872 -3.135931 0.230169 -31.037428 2.034024 -16.169482 -1.494202 -0.395415 0.688793 0.000000 0.000000 0.000000 -15.684872 2.619632 0.493045 -6.799195 -5.235224 -20.666675 59.732409 5.198908 2.450496 -38.259762 -8.353267 13.236307 0.489337 0.264440 -0.494483 0.000000 0.000000 0.000000 -15.386613 1.703394 0.122509 18.662327 0.106197 1.530284 4.918202 0.021507 0.302198 1.011834 2.563105 0.816985 0.000000 0.000000 0.000000 5.887086 -0.083451 0.503714 -10.900344 -1.257585 -0.028766 -19.184857 -0.822968 -0.885541 0.000000 0.000000 0.000000 6.041477 0.089472 0.965590 3.544969 -11.125696 -3.087461 -3.407122 -2.710052 -2.874456 -9.533930 -14.634490 -56.686192 50.420880 -61.922290 52.299810 0.000000 0.000000 0.000000 6.488118 0.029120 0.286614 9.861443 -6.349306 17.667712 -1.278390 -0.796704 1.842049 -16.748268 19.464316 54.949401 79.852513 70.729860 -76.734450 0.000000 0.000000 0.000000 
-0.260067 28.821327 -1.361849 0.000000 0.000000 0.000000 -15.633758 2.636258 0.548902 -17.894081 -4.694065 18.445173 64.164990 -2.963037 0.340220 -31.079365 2.175741 -16.073889 -1.495464 -0.301652 0.569967 0.000000 0.000000 0.000000 -16.029771 2.793390 0.539364 -5.772173 -5.537514 -20.663605 59.182503 5.213721 2.329200 -38.360067 -8.703124 13.091116 0.303673 0.222671 -0.418877 0.000000 0.000000 0.000000 -15.959845 1.930250 0.246472 19.040266 -0.239196 1.162315 5.132073 0.130164 0.300730 0.132244 1.565544 1.292675 0.000000 0.000000 0.000000 6.206941 0.010340 0.348698 -8.694597 -0.963722 -0.661992 -19.403700 -0.582058 -1.216831 0.000000 0.000000 0.000000 6.176095 0.169480 0.933908 2.933707 -12.214581 -2.314165 -3.401588 -3.413366 -2.101298 -6.293648 -13.676918 -51.824603 41.888526 -66.178201 44.106708 0.000000 0.000000 0.000000 6.846361 0.123018 0.352912 9.342106 -5.795444 16.893021 -2.994736 -0.924170 0.644243 -9.483074 21.575924 49.109900 77.291821 77.823285 -75.197248 0.000000 0.000000 0.000000 
-0.269841 28.982832 -1.369650 0.000000 0.000000 0.000000 -16.158930 2.692163 0.730286 -17.251915 -4.543111 17.715726 63.782492 -2.737423 0.534091 -30.872551 2.243847 -15.862464 -1.565616 -0.228465 0.444886 0.000000 0.000000 0.000000 -16.322272 3.008051 0.710606 -4.803089 -5.863116 -20.662714 58.270652 5.093206 2.271447 -38.311812 -9.029315 12.730268 0.320962 0.184099 -0.294835 0.000000 0.000000 0.000000 -16.570637 2.053354 0.477255 19.387149 -0.676403 0.859570 5.244280 0.143069 0.290217 -0.836161 0.732458 1.323641 0.000000 0.000000 0.000000 6.550374 0.026272 0.223823 -5.341326 -0.612007 -1.345036 -18.955136 -0.366154 -1.581393 0.000000 0.000000 0.000000 6.277974 0.141482 0.929031 2.490056 -13.187681 -1.033253 -3.156091 -3.643904 -1.929655 -1.761257 -12.698890 -44.394334 31.452164 -72.148285 33.922561 0.000000 0.000000 0.000000 7.106430 0.092190 0.427288 8.821471 -5.156947 15.338725 -3.978636 -0.663584 -0.249940 -0.888042 21.677045 41.447763 66.429628 84.853530 -64.650978 0.000000 0.000000 0.000000 
-0.272375 29.181755 -1.409129 0.000000 0.000000 0.000000 -16.636343 2.715585 0.972013 -16.478222 -4.418669 16.985704 63.098012 -2.538158 0.791211 -30.311669 2.212613 -15.651003 -1.644049 -0.190533 0.336531 0.000000 0.000000 0.000000 -16.566101 3.292238 0.994259 -3.984448 -6.174860 -20.712159 57.064977 4.936791 2.252825 -37.958230 -9.260411 12.450528 0.398527 0.172497 -0.194153 0.000000 0.000000 0.000000 -17.139204 2.173622 0.752902 19.615622 -1.194422 0.646855 5.338231 0.033275 0.282463 -1.310638 0.842850 1.135255 0.000000 0.000000 0.000000 6.832802 -0.081499 0.196343 -0.801408 -0.259402 -1.998209 -17.869619 -0.148310 -1.864694 0.000000 0.000000 0.000000 6.400896 -0.001061 0.933529 2.400804 -13.936529 0.730296 -2.593085 -4.090168 -2.191581 3.665144 -11.399642 -35.044157 14.670159 -77.959438 17.229832 0.000000 0.000000 0.000000 7.154672 -0.061306 0.556706 8.252146 -4.302520 13.175664 -4.334094 -0.017481 -0.645053 6.032625 19.088767 33.752664 -35.752564 86.963908 37.719508 0.000000 0.000000 0.000000 
